<mxfile host="Electron" modified="2023-06-04T09:53:17.403Z" agent="Mozilla/5.0 (Windows NT 10.0; Win64; x64) AppleWebKit/537.36 (KHTML, like Gecko) draw.io/21.2.8 Chrome/112.0.5615.165 Electron/24.2.0 Safari/537.36" etag="a4OHsw5j0_U64L0kANMB" version="21.2.8" type="device">
  <diagram name="Page-1" id="5d7acffa-a066-3a61-03fe-96351882024d">
    <mxGraphModel dx="1219" dy="722" grid="1" gridSize="10" guides="1" tooltips="1" connect="1" arrows="1" fold="1" page="1" pageScale="1" pageWidth="1100" pageHeight="850" background="#ffffff" math="0" shadow="0">
      <root>
        <mxCell id="0" />
        <mxCell id="1" parent="0" />
        <mxCell id="_ZvdLzpq_kK9iZdORz6R-1" value="&lt;font style=&quot;font-size: 16px;&quot;&gt;报名记录&lt;/font&gt;" style="html=1;rounded=0;shadow=0;comic=0;labelBackgroundColor=none;strokeWidth=2;fontFamily=Verdana;fontSize=12;align=center;shape=mxgraph.ios7ui.horLines;" vertex="1" parent="1">
          <mxGeometry x="435" y="300" width="135" height="50" as="geometry" />
        </mxCell>
        <mxCell id="_ZvdLzpq_kK9iZdORz6R-2" value="处理报名情况&lt;br style=&quot;font-size: 16px;&quot;&gt;1" style="ellipse;whiteSpace=wrap;html=1;fontSize=16;" vertex="1" parent="1">
          <mxGeometry x="350" y="160" width="120" height="80" as="geometry" />
        </mxCell>
        <mxCell id="_ZvdLzpq_kK9iZdORz6R-3" value="" style="endArrow=classic;html=1;rounded=0;entryX=0;entryY=0.5;entryDx=0;entryDy=0;" edge="1" parent="1" target="_ZvdLzpq_kK9iZdORz6R-2">
          <mxGeometry width="50" height="50" relative="1" as="geometry">
            <mxPoint x="210" y="200" as="sourcePoint" />
            <mxPoint x="280" y="170" as="targetPoint" />
          </mxGeometry>
        </mxCell>
        <mxCell id="_ZvdLzpq_kK9iZdORz6R-4" value="&lt;span style=&quot;font-size: 16px;&quot;&gt;报名信息、&lt;br&gt;缴费记录&lt;br&gt;&lt;/span&gt;" style="edgeLabel;html=1;align=center;verticalAlign=middle;resizable=0;points=[];" vertex="1" connectable="0" parent="_ZvdLzpq_kK9iZdORz6R-3">
          <mxGeometry x="0.2482" y="-2" relative="1" as="geometry">
            <mxPoint x="-17" y="-2" as="offset" />
          </mxGeometry>
        </mxCell>
        <mxCell id="_ZvdLzpq_kK9iZdORz6R-5" value="" style="endArrow=classic;html=1;rounded=0;exitX=0.5;exitY=1;exitDx=0;exitDy=0;entryX=0.471;entryY=-0.035;entryDx=0;entryDy=0;entryPerimeter=0;" edge="1" parent="1" source="_ZvdLzpq_kK9iZdORz6R-2" target="_ZvdLzpq_kK9iZdORz6R-1">
          <mxGeometry width="50" height="50" relative="1" as="geometry">
            <mxPoint x="500" y="270" as="sourcePoint" />
            <mxPoint x="550" y="220" as="targetPoint" />
          </mxGeometry>
        </mxCell>
        <mxCell id="_ZvdLzpq_kK9iZdORz6R-6" value="发送考试试卷&lt;br style=&quot;font-size: 16px;&quot;&gt;2" style="ellipse;whiteSpace=wrap;html=1;fontSize=16;" vertex="1" parent="1">
          <mxGeometry x="570" y="160" width="120" height="80" as="geometry" />
        </mxCell>
        <mxCell id="_ZvdLzpq_kK9iZdORz6R-7" value="" style="endArrow=classic;html=1;rounded=0;exitX=0.719;exitY=-0.049;exitDx=0;exitDy=0;exitPerimeter=0;entryX=0;entryY=1;entryDx=0;entryDy=0;" edge="1" parent="1" source="_ZvdLzpq_kK9iZdORz6R-1" target="_ZvdLzpq_kK9iZdORz6R-6">
          <mxGeometry width="50" height="50" relative="1" as="geometry">
            <mxPoint x="560" y="330" as="sourcePoint" />
            <mxPoint x="610" y="280" as="targetPoint" />
          </mxGeometry>
        </mxCell>
        <mxCell id="_ZvdLzpq_kK9iZdORz6R-8" value="" style="endArrow=classic;html=1;rounded=0;exitX=0.5;exitY=0;exitDx=0;exitDy=0;" edge="1" parent="1" source="_ZvdLzpq_kK9iZdORz6R-6">
          <mxGeometry width="50" height="50" relative="1" as="geometry">
            <mxPoint x="620" y="130" as="sourcePoint" />
            <mxPoint x="210" y="120" as="targetPoint" />
            <Array as="points">
              <mxPoint x="630" y="120" />
            </Array>
          </mxGeometry>
        </mxCell>
        <mxCell id="_ZvdLzpq_kK9iZdORz6R-9" value="&lt;span style=&quot;font-size: 16px;&quot;&gt;考试试卷&lt;/span&gt;" style="edgeLabel;html=1;align=center;verticalAlign=middle;resizable=0;points=[];" vertex="1" connectable="0" parent="_ZvdLzpq_kK9iZdORz6R-8">
          <mxGeometry x="0.1958" y="-3" relative="1" as="geometry">
            <mxPoint x="-113" as="offset" />
          </mxGeometry>
        </mxCell>
        <mxCell id="_ZvdLzpq_kK9iZdORz6R-10" value="&lt;font style=&quot;font-size: 16px;&quot;&gt;试卷记录&lt;/font&gt;" style="html=1;rounded=0;shadow=0;comic=0;labelBackgroundColor=none;strokeWidth=2;fontFamily=Verdana;fontSize=12;align=center;shape=mxgraph.ios7ui.horLines;" vertex="1" parent="1">
          <mxGeometry x="670" y="300" width="135" height="50" as="geometry" />
        </mxCell>
        <mxCell id="_ZvdLzpq_kK9iZdORz6R-11" value="&lt;font style=&quot;font-size: 16px;&quot;&gt;作答记录&lt;/font&gt;" style="html=1;rounded=0;shadow=0;comic=0;labelBackgroundColor=none;strokeWidth=2;fontFamily=Verdana;fontSize=12;align=center;shape=mxgraph.ios7ui.horLines;" vertex="1" parent="1">
          <mxGeometry x="435" y="440" width="135" height="50" as="geometry" />
        </mxCell>
        <mxCell id="_ZvdLzpq_kK9iZdORz6R-12" value="" style="endArrow=classic;html=1;rounded=0;exitX=0.529;exitY=-0.042;exitDx=0;exitDy=0;exitPerimeter=0;entryX=0.5;entryY=1;entryDx=0;entryDy=0;" edge="1" parent="1" source="_ZvdLzpq_kK9iZdORz6R-10" target="_ZvdLzpq_kK9iZdORz6R-6">
          <mxGeometry width="50" height="50" relative="1" as="geometry">
            <mxPoint x="870" y="260" as="sourcePoint" />
            <mxPoint x="920" y="210" as="targetPoint" />
          </mxGeometry>
        </mxCell>
        <mxCell id="_ZvdLzpq_kK9iZdORz6R-14" value="&lt;font style=&quot;font-size: 16px;&quot;&gt;成绩记录&lt;/font&gt;" style="html=1;rounded=0;shadow=0;comic=0;labelBackgroundColor=none;strokeWidth=2;fontFamily=Verdana;fontSize=12;align=center;shape=mxgraph.ios7ui.horLines;" vertex="1" parent="1">
          <mxGeometry x="670" y="440" width="135" height="50" as="geometry" />
        </mxCell>
        <mxCell id="_ZvdLzpq_kK9iZdORz6R-15" value="处理考试作答&lt;br style=&quot;font-size: 16px;&quot;&gt;3" style="ellipse;whiteSpace=wrap;html=1;fontSize=16;" vertex="1" parent="1">
          <mxGeometry x="260" y="345" width="120" height="80" as="geometry" />
        </mxCell>
        <mxCell id="_ZvdLzpq_kK9iZdORz6R-16" value="" style="endArrow=classic;html=1;rounded=0;exitX=1;exitY=0.5;exitDx=0;exitDy=0;entryX=0.311;entryY=-0.082;entryDx=0;entryDy=0;entryPerimeter=0;" edge="1" parent="1" source="_ZvdLzpq_kK9iZdORz6R-15" target="_ZvdLzpq_kK9iZdORz6R-11">
          <mxGeometry width="50" height="50" relative="1" as="geometry">
            <mxPoint x="490" y="420" as="sourcePoint" />
            <mxPoint x="540" y="370" as="targetPoint" />
            <Array as="points">
              <mxPoint x="477" y="385" />
            </Array>
          </mxGeometry>
        </mxCell>
        <mxCell id="_ZvdLzpq_kK9iZdORz6R-19" value="" style="endArrow=classic;html=1;rounded=0;entryX=0;entryY=0.5;entryDx=0;entryDy=0;" edge="1" parent="1">
          <mxGeometry width="50" height="50" relative="1" as="geometry">
            <mxPoint x="150" y="384" as="sourcePoint" />
            <mxPoint x="260" y="384.40999999999997" as="targetPoint" />
          </mxGeometry>
        </mxCell>
        <mxCell id="_ZvdLzpq_kK9iZdORz6R-20" value="&lt;span style=&quot;font-size: 16px;&quot;&gt;考生作答&lt;br&gt;&lt;/span&gt;" style="edgeLabel;html=1;align=center;verticalAlign=middle;resizable=0;points=[];" vertex="1" connectable="0" parent="_ZvdLzpq_kK9iZdORz6R-19">
          <mxGeometry x="0.2482" y="-2" relative="1" as="geometry">
            <mxPoint x="-17" y="-2" as="offset" />
          </mxGeometry>
        </mxCell>
        <mxCell id="_ZvdLzpq_kK9iZdORz6R-21" value="" style="endArrow=classic;html=1;rounded=0;exitX=1;exitY=0.5;exitDx=0;exitDy=0;entryX=0.222;entryY=0;entryDx=0;entryDy=0;entryPerimeter=0;" edge="1" parent="1" source="_ZvdLzpq_kK9iZdORz6R-15" target="_ZvdLzpq_kK9iZdORz6R-14">
          <mxGeometry width="50" height="50" relative="1" as="geometry">
            <mxPoint x="530" y="430" as="sourcePoint" />
            <mxPoint x="580" y="380" as="targetPoint" />
            <Array as="points">
              <mxPoint x="700" y="385" />
            </Array>
          </mxGeometry>
        </mxCell>
        <mxCell id="_ZvdLzpq_kK9iZdORz6R-22" value="处理成绩查询&lt;br style=&quot;font-size: 16px;&quot;&gt;4" style="ellipse;whiteSpace=wrap;html=1;fontSize=16;" vertex="1" parent="1">
          <mxGeometry x="260" y="590" width="120" height="80" as="geometry" />
        </mxCell>
        <mxCell id="_ZvdLzpq_kK9iZdORz6R-25" value="" style="endArrow=classic;html=1;rounded=0;exitX=0;exitY=0.5;exitDx=0;exitDy=0;" edge="1" parent="1" source="_ZvdLzpq_kK9iZdORz6R-22">
          <mxGeometry width="50" height="50" relative="1" as="geometry">
            <mxPoint x="140" y="570" as="sourcePoint" />
            <mxPoint x="160" y="630" as="targetPoint" />
          </mxGeometry>
        </mxCell>
        <mxCell id="_ZvdLzpq_kK9iZdORz6R-26" value="考生成绩" style="edgeLabel;html=1;align=center;verticalAlign=middle;resizable=0;points=[];fontSize=16;" vertex="1" connectable="0" parent="_ZvdLzpq_kK9iZdORz6R-25">
          <mxGeometry x="-0.3212" y="-4" relative="1" as="geometry">
            <mxPoint x="-16" y="4" as="offset" />
          </mxGeometry>
        </mxCell>
        <mxCell id="_ZvdLzpq_kK9iZdORz6R-27" value="" style="endArrow=classic;html=1;rounded=0;entryX=1;entryY=0.5;entryDx=0;entryDy=0;" edge="1" parent="1" target="_ZvdLzpq_kK9iZdORz6R-22">
          <mxGeometry width="50" height="50" relative="1" as="geometry">
            <mxPoint x="699" y="490" as="sourcePoint" />
            <mxPoint x="700" y="590" as="targetPoint" />
            <Array as="points">
              <mxPoint x="699" y="630" />
            </Array>
          </mxGeometry>
        </mxCell>
        <mxCell id="_ZvdLzpq_kK9iZdORz6R-28" value="处理试卷录入&lt;br style=&quot;font-size: 16px;&quot;&gt;5" style="ellipse;whiteSpace=wrap;html=1;fontSize=16;" vertex="1" parent="1">
          <mxGeometry x="805" y="160" width="120" height="80" as="geometry" />
        </mxCell>
        <mxCell id="_ZvdLzpq_kK9iZdORz6R-29" value="" style="endArrow=classic;html=1;rounded=0;entryX=0.5;entryY=0;entryDx=0;entryDy=0;" edge="1" parent="1" target="_ZvdLzpq_kK9iZdORz6R-28">
          <mxGeometry width="50" height="50" relative="1" as="geometry">
            <mxPoint x="1040" y="120" as="sourcePoint" />
            <mxPoint x="900" y="50" as="targetPoint" />
            <Array as="points">
              <mxPoint x="865" y="120" />
            </Array>
          </mxGeometry>
        </mxCell>
        <mxCell id="_ZvdLzpq_kK9iZdORz6R-30" value="&lt;span style=&quot;font-size: 16px;&quot;&gt;考试试题&lt;/span&gt;" style="edgeLabel;html=1;align=center;verticalAlign=middle;resizable=0;points=[];" vertex="1" connectable="0" parent="_ZvdLzpq_kK9iZdORz6R-29">
          <mxGeometry x="0.0282" y="1" relative="1" as="geometry">
            <mxPoint as="offset" />
          </mxGeometry>
        </mxCell>
        <mxCell id="_ZvdLzpq_kK9iZdORz6R-31" value="" style="endArrow=classic;html=1;rounded=0;exitX=0.5;exitY=1;exitDx=0;exitDy=0;entryX=0.732;entryY=-0.049;entryDx=0;entryDy=0;entryPerimeter=0;" edge="1" parent="1" source="_ZvdLzpq_kK9iZdORz6R-28" target="_ZvdLzpq_kK9iZdORz6R-10">
          <mxGeometry width="50" height="50" relative="1" as="geometry">
            <mxPoint x="920" y="340" as="sourcePoint" />
            <mxPoint x="970" y="290" as="targetPoint" />
          </mxGeometry>
        </mxCell>
        <mxCell id="_ZvdLzpq_kK9iZdORz6R-32" value="处理教师阅卷&lt;br style=&quot;font-size: 16px;&quot;&gt;6" style="ellipse;whiteSpace=wrap;html=1;fontSize=16;" vertex="1" parent="1">
          <mxGeometry x="805" y="540" width="120" height="80" as="geometry" />
        </mxCell>
        <mxCell id="_ZvdLzpq_kK9iZdORz6R-33" value="发送考生作答&lt;br style=&quot;font-size: 16px;&quot;&gt;7" style="ellipse;whiteSpace=wrap;html=1;fontSize=16;" vertex="1" parent="1">
          <mxGeometry x="260" y="470" width="120" height="80" as="geometry" />
        </mxCell>
        <mxCell id="_ZvdLzpq_kK9iZdORz6R-34" value="" style="endArrow=classic;html=1;rounded=0;exitX=0.311;exitY=1.066;exitDx=0;exitDy=0;exitPerimeter=0;entryX=1;entryY=0.5;entryDx=0;entryDy=0;" edge="1" parent="1" source="_ZvdLzpq_kK9iZdORz6R-11" target="_ZvdLzpq_kK9iZdORz6R-33">
          <mxGeometry width="50" height="50" relative="1" as="geometry">
            <mxPoint x="500" y="580" as="sourcePoint" />
            <mxPoint x="550" y="530" as="targetPoint" />
            <Array as="points">
              <mxPoint x="477" y="510" />
            </Array>
          </mxGeometry>
        </mxCell>
        <mxCell id="_ZvdLzpq_kK9iZdORz6R-35" value="" style="endArrow=classic;html=1;rounded=0;exitX=0;exitY=0.5;exitDx=0;exitDy=0;" edge="1" parent="1">
          <mxGeometry width="50" height="50" relative="1" as="geometry">
            <mxPoint x="260" y="509.40999999999997" as="sourcePoint" />
            <mxPoint x="160" y="509.40999999999997" as="targetPoint" />
          </mxGeometry>
        </mxCell>
        <mxCell id="_ZvdLzpq_kK9iZdORz6R-36" value="考生作答" style="edgeLabel;html=1;align=center;verticalAlign=middle;resizable=0;points=[];fontSize=16;" vertex="1" connectable="0" parent="_ZvdLzpq_kK9iZdORz6R-35">
          <mxGeometry x="-0.3212" y="-4" relative="1" as="geometry">
            <mxPoint x="-16" y="4" as="offset" />
          </mxGeometry>
        </mxCell>
        <mxCell id="_ZvdLzpq_kK9iZdORz6R-37" value="" style="endArrow=classic;html=1;rounded=0;exitX=0;exitY=0.5;exitDx=0;exitDy=0;" edge="1" parent="1" source="_ZvdLzpq_kK9iZdORz6R-32">
          <mxGeometry width="50" height="50" relative="1" as="geometry">
            <mxPoint x="700" y="680" as="sourcePoint" />
            <mxPoint x="740" y="490" as="targetPoint" />
          </mxGeometry>
        </mxCell>
        <mxCell id="_ZvdLzpq_kK9iZdORz6R-38" value="" style="endArrow=classic;html=1;rounded=0;entryX=1;entryY=0.5;entryDx=0;entryDy=0;" edge="1" parent="1" target="_ZvdLzpq_kK9iZdORz6R-32">
          <mxGeometry width="50" height="50" relative="1" as="geometry">
            <mxPoint x="1040" y="580" as="sourcePoint" />
            <mxPoint x="1040" y="400" as="targetPoint" />
          </mxGeometry>
        </mxCell>
        <mxCell id="_ZvdLzpq_kK9iZdORz6R-39" value="&lt;span style=&quot;font-size: 16px;&quot;&gt;考生得分&lt;/span&gt;" style="edgeLabel;html=1;align=center;verticalAlign=middle;resizable=0;points=[];" vertex="1" connectable="0" parent="_ZvdLzpq_kK9iZdORz6R-38">
          <mxGeometry x="-0.4316" y="3" relative="1" as="geometry">
            <mxPoint x="-13" y="-3" as="offset" />
          </mxGeometry>
        </mxCell>
        <mxCell id="_ZvdLzpq_kK9iZdORz6R-41" value="" style="endArrow=classic;html=1;rounded=0;entryX=0.985;entryY=0.226;entryDx=0;entryDy=0;entryPerimeter=0;exitX=1.001;exitY=0.384;exitDx=0;exitDy=0;exitPerimeter=0;" edge="1" parent="1" source="_ZvdLzpq_kK9iZdORz6R-1" target="_ZvdLzpq_kK9iZdORz6R-22">
          <mxGeometry width="50" height="50" relative="1" as="geometry">
            <mxPoint x="600" y="320" as="sourcePoint" />
            <mxPoint x="660" y="520" as="targetPoint" />
            <Array as="points">
              <mxPoint x="610" y="319" />
              <mxPoint x="610" y="608" />
            </Array>
          </mxGeometry>
        </mxCell>
        <mxCell id="_ZvdLzpq_kK9iZdORz6R-42" value="" style="endArrow=classic;html=1;rounded=0;exitX=0.209;exitY=1.061;exitDx=0;exitDy=0;exitPerimeter=0;entryX=0.977;entryY=0.324;entryDx=0;entryDy=0;entryPerimeter=0;" edge="1" parent="1" source="_ZvdLzpq_kK9iZdORz6R-10" target="_ZvdLzpq_kK9iZdORz6R-15">
          <mxGeometry width="50" height="50" relative="1" as="geometry">
            <mxPoint x="920" y="380" as="sourcePoint" />
            <mxPoint x="970" y="330" as="targetPoint" />
            <Array as="points">
              <mxPoint x="698" y="370" />
            </Array>
          </mxGeometry>
        </mxCell>
      </root>
    </mxGraphModel>
  </diagram>
</mxfile>
